<?xml version="1.0" encoding="UTF-8"?>
<svg viewBox="0 0 533.33 533.33" xmlns="http://www.w3.org/2000/svg">
 <g fill-rule="evenodd">
  <g stroke="#000">
   <g fill="#00007f" stroke-width="3.75">
    <path d="m19.723 420.5s65.259-34.09 117.86-85.712c17.532-23.376 57.466-81.817 57.466-81.817l65.259 33.116s-46.753 76.947-101.3 125.65c-27.272 25.324-107.14 60.389-107.14 60.389s24.35-45.779 24.35-49.675-48.7-2.922-56.492-1.948z"/>
    <path d="m267.12 288.03c0 0.97403 67.206-30.194 66.232-30.194s37.987 80.843 62.337 110.06c28.246 33.116 41.882 42.856 58.44 53.57 12.662 5.845 24.35 11.689 24.35 11.689s-48.7 5.844-50.648 2.922-5.844 11.688-0.974 27.272c4.87 9.74 1.948 15.584 10.714 28.246-0.974 0.974-77.921-52.596-110.06-102.27-37.013-56.493-59.415-101.3-60.389-101.3z"/>
   </g>
   <path d="m434.65 166.28c0-88.22-74.787-159.74-167.04-159.74-92.255 0-167.04 71.517-167.04 159.74-0.05896 88.26 74.746 159.84 167.04 159.84 92.296 9.2e-5 167.1-71.579 167.04-159.84l-167.04-3e-4h167.04z" fill="none" stroke-width="6.25"/>
  </g>
  <path d="m433.7 167.26c0-87.145-73.697-157.79-164.61-157.79-90.91 0-164.61 70.645-164.61 157.79-0.058098 87.184 73.656 157.89 164.61 157.89 90.951 9.2e-5 164.66-70.706 164.61-157.89l-164.61-2e-4h164.61z" fill="#00007f" stroke-width="1.25"/>
  <g fill="#007fff" stroke="#000">
   <polygon points="416.7 225.7 376.75 246.75 366.31 289.75 320.88 288.56 289.73 320.72 251 297.61 207.48 310.31 185.83 271.47 141.61 261.31 142.83 217.14 109.76 186.84 133.53 149.19 120.46 106.87 160.41 85.814 170.86 42.812 216.28 44.002 247.44 11.839 286.16 34.955 329.68 22.249 351.33 61.096 395.56 71.252 394.33 115.42 427.41 145.72 403.64 183.38" stroke-width="3.94"/>
   <path d="m252.34 289.66c-67.469-9.6424-115.23-70.181-108.25-137.22 6.9776-67.033 66.209-116.69 134.25-112.55 68.042 4.1408 120.66 60.604 119.27 127.98-1.3933 67.373-56.306 121.66-124.46 123.05" stroke-width="3.75"/>
  </g>
 </g>
</svg>
